<?xml version="1.0" standalone="no"?>
<!DOCTYPE svg PUBLIC "-//W3C//DTD SVG 20010904//EN"
 "http://www.w3.org/TR/2001/REC-SVG-20010904/DTD/svg10.dtd">
<svg version="1.0" xmlns="http://www.w3.org/2000/svg"
 width="85.000000pt" height="80.000000pt" viewBox="0 0 85.000000 80.000000"
 preserveAspectRatio="xMidYMid meet">

<g transform="translate(0.000000,80.000000) scale(0.100000,-0.100000)"
fill="#000000" stroke="none">
<path d="M199 583 c-13 -15 -12 -15 8 -3 18 11 24 12 37 1 21 -18 20 -38 -1
-50 -17 -10 -17 -10 -1 -11 9 0 20 5 23 10 3 6 12 10 18 9 9 0 9 -2 0 -6 -23
-9 -14 -21 25 -34 20 -7 65 -25 99 -41 71 -33 88 -35 97 -10 3 9 10 27 16 40
5 12 5 22 0 22 -5 0 -12 -9 -15 -21 -9 -27 -16 -20 -8 9 3 12 12 22 20 22 8 0
11 5 8 10 -12 19 -23 10 -35 -25 -6 -19 -12 -35 -13 -35 -7 0 -114 43 -122 49
-5 4 -26 14 -45 21 -19 8 -43 25 -53 37 -22 27 -39 29 -58 6z m177 -90 c-7 -8
-56 9 -51 18 3 4 17 3 30 -3 14 -6 23 -13 21 -15z m44 -13 c8 -5 11 -10 5 -10
-5 0 -17 5 -25 10 -8 5 -10 10 -5 10 6 0 17 -5 25 -10z m70 -32 c0 -11 -12
-10 -30 2 -12 7 -10 9 8 7 12 0 22 -5 22 -9z"/>
<path d="M602 584 c-15 -10 -22 -24 -20 -42 1 -15 -19 -77 -45 -138 -26 -62
-47 -116 -47 -120 1 -12 100 -55 111 -48 20 12 8 42 -21 53 -16 5 -30 13 -30
17 0 22 85 201 102 212 24 17 20 50 -7 68 -18 12 -24 11 -43 -2z m46 -32 c3
-18 -1 -22 -22 -22 -19 0 -26 5 -26 18 0 39 43 43 48 4z"/>
<path d="M356 573 c-8 -21 -2 -27 56 -52 47 -20 48 -20 58 -1 9 17 4 23 -39
45 -59 30 -67 30 -75 8z"/>
<path d="M190 542 c0 -12 19 -26 26 -19 2 2 -2 10 -11 17 -9 8 -15 8 -15 2z"/>
<path d="M242 458 c-18 -18 -15 -26 22 -45 l34 -18 -37 -90 c-20 -50 -48 -105
-60 -122 -25 -34 -23 -56 7 -72 29 -15 65 14 59 47 -3 16 11 65 39 134 47 116
51 133 32 141 -7 3 -29 12 -49 21 -27 11 -39 12 -47 4z m8 -308 c0 -24 -26
-38 -42 -22 -16 16 -2 42 22 42 13 0 20 -7 20 -20z"/>
<path d="M606 387 c-26 -62 -27 -74 -12 -80 11 -4 21 7 36 40 20 46 20 73 0
73 -5 0 -16 -15 -24 -33z m28 -2 c-4 -8 -8 -15 -10 -15 -2 0 -4 7 -4 15 0 8 4
15 10 15 5 0 7 -7 4 -15z m-21 -45 c-3 -11 -9 -20 -13 -20 -5 0 -6 9 -3 20 3
11 9 20 13 20 5 0 6 -9 3 -20z"/>
<path d="M211 343 c-18 -37 -20 -48 -9 -54 21 -14 24 -11 41 31 8 22 12 40 7
40 -5 0 -11 -13 -15 -30 -4 -19 -13 -30 -23 -30 -11 0 -13 3 -6 8 6 4 16 21
21 37 7 20 16 29 28 27 10 -2 14 1 10 7 -13 22 -32 10 -54 -36z"/>
<path d="M330 234 c-24 -55 -24 -60 -5 -68 18 -7 38 28 30 53 -8 26 4 51 21
44 8 -3 14 -9 14 -14 0 -4 -7 -6 -15 -3 -8 4 -15 2 -15 -3 0 -4 30 -19 68 -32
90 -32 144 -60 160 -83 27 -38 91 0 66 40 -6 9 -20 18 -30 19 -14 2 -13 0 4
-7 33 -14 27 -55 -8 -55 -20 0 -25 5 -25 27 -1 34 -11 44 -29 29 -8 -7 -17 -8
-20 -3 -3 5 -26 15 -51 21 -28 7 -43 16 -39 22 4 7 9 7 13 2 3 -6 18 -13 33
-16 14 -4 34 -9 45 -12 27 -9 -85 44 -142 66 -27 10 -51 19 -53 19 -1 0 -12
-21 -22 -46z m100 6 c8 -5 11 -12 7 -16 -4 -4 -15 0 -24 9 -18 18 -8 23 17 7z
m-88 -52 c-7 -7 -12 -8 -12 -2 0 14 12 26 19 19 2 -3 -1 -11 -7 -17z"/>
<path d="M379 190 c-1 -5 -2 -15 -3 -20 -1 -6 23 -21 51 -35 53 -24 53 -24 64
-4 13 25 15 23 -45 48 -54 24 -65 25 -67 11z"/>
</g>
</svg>
